<svg xmlns="http://www.w3.org/2000/svg" version="1.1" xmlns:xlink="http://www.w3.org/1999/xlink" xmlns:svgjs="http://svgjs.com/svgjs" width="512" height="512" x="0" y="0" viewBox="0 0 512 512" style="enable-background:new 0 0 512 512" xml:space="preserve" class=""><g><path fill="#1fade7" d="m83.3 287.8-2.5-4.4c-1.4-2.4-4.5-3.2-6.8-1.9-5.8 4.4-13.5 0-12.6-7.2 0-2.7-2.2-5-5-5h-5c-2.7 0-5 2.2-5 5 .9 7.2-6.8 11.6-12.6 7.2-2.4-1.4-5.5-.5-6.8 1.9l-2.5 4.4c-1.4 2.4-.5 5.5 1.9 6.8 6.7 2.8 6.7 11.7 0 14.6-2.4 1.4-3.2 4.5-1.9 6.8l2.5 4.4c1.4 2.4 4.5 3.2 6.8 1.9 5.8-4.4 13.5 0 12.6 7.2 0 2.7 2.2 5 5 5h5c2.7 0 5-2.2 5-5-.9-7.2 6.8-11.6 12.6-7.2 2.4 1.4 5.5.5 6.8-1.9l2.5-4.4c1.4-2.4.5-5.5-1.9-6.8-6.7-2.8-6.7-11.7 0-14.6 2.4-1.4 3.3-4.4 1.9-6.8z" data-original="#dcd2ff" class=""></path><circle cx="53.8" cy="301.8" r="10" fill="#ffffff" data-original="#ffffff" class=""></circle><path fill="#66aadd" d="M395.4 148.7H73.3c-7.8 0-14.1 6.3-14.1 14.1v209.1c0 7.8 6.3 14.1 14.1 14.1h322.1c7.8 0 14.1-6.3 14.1-14.1V162.8c.1-7.8-6.2-14.1-14.1-14.1z" data-original="#8366dd" class=""></path><g fill="#d2bbff"><circle cx="92.6" cy="178" r="5.8" fill="#bbe2ff" data-original="#d2bbff" class=""></circle><circle cx="152.4" cy="178" r="5.8" fill="#bbe2ff" data-original="#d2bbff" class=""></circle><circle cx="122.5" cy="178" r="5.8" fill="#bbe2ff" data-original="#d2bbff" class=""></circle></g><path fill="#ffffff" d="M392.2 374.6H76.6c-3.3 0-6-2.7-6-6v-165h327.7v165.1c-.1 3.3-2.7 5.9-6.1 5.9z" data-original="#ffffff" class=""></path><g fill="#ede6ff"><path d="M246.2 303.3h59.7v4.3h-59.7zM246.2 282.1h82.6v4.3h-82.6z" fill="#ede6ff" data-original="#ede6ff" class=""></path></g><path fill="#88aaff" d="M217.7 335.2h-65.2c-3.7 0-6.7-3-6.7-6.7v-79c0-3.7 3-6.7 6.7-6.7h45.8l25.9 26.4v59.3c.2 3.8-2.9 6.7-6.5 6.7z" data-original="#b188ff" class=""></path><path fill="#66aadd" d="M224.4 269.2h-26.1V243z" data-original="#8366dd" class=""></path><path fill="#ede6ff" d="M207.6 305.4h-45.4v3.5h28.9v7.2c0 2.7 2.2 5 5 5h3.3c2.7 0 5-2.2 5-5V309h3.2z" data-original="#ede6ff" class=""></path><path fill="#66aadd" d="M197.8 312.3c-.9 0-1.6.8-1.6 1.6v7.2h3.2V314c0-1-.7-1.7-1.6-1.7z" data-original="#8366dd" class=""></path><g fill="#ede6ff"><path d="m175.2 284.3-2.6-2.4-2.9 3-3-3-2.5 2.4 3 3.1-3 3 2.5 2.5 3-3.1 2.9 3.1 2.6-2.5-3-3zM205.7 284.3l-2.5-2.4-3 3-2.9-3-2.6 2.4 3 3.1-3 3 2.6 2.5 2.9-3.1 3 3.1 2.5-2.5-3-3z" fill="#ede6ff" data-original="#ede6ff" class=""></path></g><path fill="#ede6ff" d="M491.2 44.4H336.3c-3.9 0-7.1 3.2-7.1 7.1v56.3H226.5V51.4c0-1.2-1-2.1-2.1-2.1H100.6c-1.2 0-2.1 1-2.1 2.1v26.1h4.3v-24h119.6V110c0 1.2 1 2.1 2.1 2.1h104.8v63.3c0 3.9 3.2 7.1 7.1 7.1H463v73.6h4.3v-73.6h24c3.9 0 7.1-3.2 7.1-7.1V51.5c-.2-3.9-3.4-7.1-7.2-7.1z" data-original="#ede6ff" class=""></path><g fill="#8366dd"><path d="M376.2 142.4v-10.1H359V129l16.4-23.5h5.4v23h5.1v3.9h-5.1v10.1h-4.6zm0-13.9s.1-16.2.2-18.2h-.2c-1.1 2.2-12.1 17.9-12.1 17.9v.1h12.1zM455.8 142.4v-10.1h-17.2V129l16.4-23.5h5.4v23h5.1v3.9h-5.1v10.1h-4.6zm0-13.9s.1-16.2.2-18.2h-.2c-1.1 2.2-12.1 17.9-12.1 17.9v.1h12.1z" fill="#66aadd" data-original="#8366dd" class=""></path></g><circle cx="412.1" cy="123.5" r="18.3" fill="#88aaff" data-original="#b188ff" class=""></circle><g fill="#d2bbff"><circle cx="403.9" cy="121" r="2.2" fill="#bbe2ff" data-original="#d2bbff" class=""></circle><circle cx="420.2" cy="121" r="2.2" fill="#bbe2ff" data-original="#d2bbff" class=""></circle><path d="M416.9 132.9c-.4 0-1-.2-1.2-.7-.9-1.1-2.2-1.9-3.6-1.9s-2.7.7-3.6 1.9c-.5.7-1.4.9-2.1.3-.7-.5-.9-1.4-.3-2.1 1.4-2 3.6-3.1 6-3.1s4.6 1.1 6 3.1c.8 1.1 0 2.6-1.2 2.5z" fill="#bbe2ff" data-original="#d2bbff" class=""></path></g><path fill="#66aadd" d="M498.2 75.2H329.3V53.1c0-4.8 3.8-8.6 8.6-8.6h151.7c4.8 0 8.6 3.8 8.6 8.6z" data-original="#8366dd" class=""></path><path fill="#ede6ff" d="M157.6 161.5H38.9c-5.3 0-9.5-4.3-9.5-9.5V91.9c0-1.2 1-2.2 2.2-2.2h133.5c1.2 0 2.2 1 2.2 2.2V152c0 5.2-4.3 9.5-9.7 9.5z" data-original="#ede6ff" class=""></path><g fill="#d2bbff"><path d="M41.4 102.7h69.7v2.8H41.4zM41.4 116.8h36.2v2.8H41.4zM41.4 131H97v2.8H41.4zM41.4 145.1h90.9v2.8H41.4z" fill="#bbe2ff" data-original="#d2bbff" class=""></path></g><path fill="#66aadd" d="M186.6 68.5h-19.4v21.2h19.4c2 0 3.5-1.5 3.5-3.5V72c0-2-1.5-3.5-3.5-3.5z" data-original="#8366dd" class=""></path><path fill="#ffffff" d="m185.4 83.5-3.5-3.5c.5-.8.8-1.8.8-2.7 0-2.8-2.3-5.1-5.1-5.1s-5.1 2.3-5.1 5.1 2.3 5.1 5.1 5.1c.8 0 1.4-.1 2.1-.4l3.7 3.7zm-9.9-6.3c0-1.2 1-2.2 2.1-2.2 1.2 0 2.1 1 2.1 2.2s-1 2.2-2.1 2.2c-1.2-.1-2.1-1-2.1-2.2z" data-original="#ffffff" class=""></path><path fill="#88aaff" d="M25.3 72v14.1c0 2 1.5 3.5 3.5 3.5h138.5V68.5H28.8c-2 0-3.5 1.5-3.5 3.5z" data-original="#b188ff" class=""></path><g fill="#fff"><path d="M46.9 81c-.4-1.5-1.4-5.1-1.4-5.1H44s-1 3.7-1.4 5.3c-.3-1.5-1.2-5.3-1.2-5.3h-1.5l2 7.7h1.3s1.1-3.9 1.5-5.5c.4 1.5 1.5 5.5 1.5 5.5h1.3l2.1-7.7h-1.4c-.1-.1-.9 3.5-1.3 5.1zM57.9 81c-.4-1.5-1.4-5.1-1.4-5.1H55s-1 3.7-1.4 5.3c-.3-1.5-1.2-5.3-1.2-5.3h-1.5l2 7.7H54s1.1-3.9 1.5-5.5c.4 1.5 1.5 5.5 1.5 5.5h1.3l2.1-7.7H59c.1-.1-.8 3.5-1.1 5.1zM68.8 81c-.4-1.5-1.4-5.1-1.4-5.1h-1.5s-1 3.7-1.4 5.3c-.3-1.5-1.2-5.3-1.2-5.3h-1.5l2 7.7H65s1.1-3.9 1.5-5.5c.4 1.5 1.5 5.5 1.5 5.5h1.3l2.1-7.7H70c0-.1-.9 3.5-1.2 5.1zM72.4 81.9h1.5v1.5h-1.5zM72.4 77.8h1.5v1.5h-1.5z" fill="#ffffff" data-original="#ffffff" class=""></path></g><path fill="#1fade7" d="M484.5 235.3h-38.9L426.1 269l19.5 33.7h38.9L504 269z" data-original="#dcd2ff" class=""></path><circle cx="465.1" cy="269" r="14.4" fill="#ffffff" data-original="#ffffff" class=""></circle><g fill="#dcd2ff"><path d="M228.6 102.7h-8.8l-4.4 7.2 4.4 7.4h8.8l4.4-7.4zM228.6 44.3h-8.7l-4.5 7.2 4.5 7.4h8.7l4.5-7.4zM105 44.1h-8.7l-4.5 7.3 4.5 7.2h8.7l4.5-7.2z" fill="#1fade7" data-original="#dcd2ff" class=""></path></g><path fill="#bbe2ff" d="M79.6 396.7c-4.2-3-15.8 6.6-25.9 21.1-3.8 5.5-7 10.9-9.1 15.8-2.2-4.8-5.3-10.3-9.1-15.8-10.2-14.6-21.8-24-25.9-21.1-4.2 3 .8 17.1 10.9 31.6 8.9 12.6 18.7 21.3 24 21.6h.6c5.3-.2 15.1-9 24-21.6 9.8-14.5 14.7-28.7 10.5-31.6z" data-original="#d2bbff" class=""></path><path fill="#ede6ff" d="m70.6 411.1-1.5-1-24.6 35.2-24.6-35.2-1.4 1 25 35.7h2.1z" data-original="#ede6ff" class=""></path><ellipse cx="44.5" cy="417.3" fill="#ffffff" rx="9.2" ry="32.2" data-original="#ffffff" class=""></ellipse><path fill="#88aaff" d="M54.7 433c.8-4.8 1.2-10.2 1.2-15.8 0-8.8-1-17.1-2.7-23.3-2.1-7.2-4.9-10.9-8.5-10.9s-6.5 3.7-8.5 10.9c-1.8 6.2-2.7 14.6-2.7 23.3 0 5.6.4 10.9 1.2 15.8H23.3l12 32.7h18.4l12-32.7zm-17.3-15.7c0-8.4.9-16.3 2.6-22.2 1.9-6.5 3.8-7.9 4.5-7.9s2.6 1.4 4.5 7.9c1.6 5.9 2.6 13.8 2.6 22.2 0 5.7-.4 11-1.2 15.8h-5v-30.9h-1.8V433h-5c-.7-4.7-1.2-10.2-1.2-15.7z" data-original="#b188ff" class=""></path><g fill="#ede6ff"><path d="M254.2 411.7h65.3v4.3h-65.3zM254.2 438.2h150.1v4.3H254.2z" fill="#ede6ff" data-original="#ede6ff" class=""></path></g><circle cx="188" cy="434.1" r="31.6" fill="#88aaff" data-original="#b188ff" class=""></circle><path fill="#66aadd" d="m202.4 422.6-3.1-3-11.3 11.2-11.4-11.2-3 3 11.4 11.2-11.4 11.2 3 3 11.4-11.3 11.3 11.3 3.1-3-11.4-11.2z" data-original="#8366dd" class=""></path><circle cx="124.2" cy="449.4" r="16.3" fill="#ede6ff" data-original="#ede6ff" class=""></circle><path fill="#88aaff" d="m131.6 444.9-2.9-3-4.5 4.5-4.6-4.5-3 3 4.5 4.5-4.5 4.4 3 3.1 4.6-4.5 4.5 4.5 2.9-3.1-4.5-4.4z" data-original="#b188ff" class=""></path><path fill="#66aadd" d="M480.5 463.6c1.9-1 3.6-2.2 5.1-3.7 8.5-8.5 7.7-22.5-2-29.9l-45.3-34.9c7.7-10.7 12.1-23.8 12.1-38 0-36.1-29.2-65.3-65.3-65.3-27.6 0-51.1 17.1-60.7 41.2H136.6v4.3H323c-2 6.2-3.1 12.9-3.1 19.8 0 36.1 29.2 65.3 65.3 65.3 12.9 0 25.1-3.7 35.1-10.3l35.2 45.7c1.9 2.5 4.3 4.4 6.9 5.7H0v4.3h512v-4.3z" data-original="#8366dd" class=""></path><circle cx="385.1" cy="357.2" r="51.5" fill="#ffffff" data-original="#ffffff" class=""></circle><path fill="#ffffff" d="m414.4 343.2-2.5-4.4c-1.4-2.4-4.5-3.2-6.8-1.9-5.8 4.4-13.5 0-12.6-7.2 0-2.7-2.2-5-5-5h-5c-2.7 0-5 2.2-5 5 .9 7.2-6.8 11.6-12.6 7.2-2.4-1.4-5.5-.5-6.8 1.9l-2.5 4.4c-1.4 2.4-.5 5.5 1.9 6.8 6.7 2.8 6.7 11.7 0 14.6-2.4 1.4-3.2 4.5-1.9 6.8l2.5 4.4c1.4 2.4 4.5 3.2 6.8 1.9 5.8-4.4 13.5 0 12.6 7.2 0 2.7 2.2 5 5 5h5c2.7 0 5-2.2 5-5-.9-7.2 6.8-11.6 12.6-7.2 2.4 1.4 5.5.5 6.8-1.9l2.5-4.4c1.4-2.4.5-5.5-1.9-6.8-6.7-2.8-6.7-11.7 0-14.6 2.6-1.4 3.3-4.4 1.9-6.8z" data-original="#ffffff" class=""></path><path fill="#66aadd" d="M387.6 391.9h-5c-3.9 0-7.1-3.2-7.1-7.1 1.1-5.5-5.3-9.1-9.4-5.5-3.3 2-7.9.8-9.7-2.6l-2.5-4.4c-2-3.3-.8-7.9 2.6-9.7 5.3-1.9 5.3-9 0-10.8-3.4-1.9-4.6-6.5-2.6-9.7l2.5-4.4c1.9-3.4 6.7-4.6 10-2.4 4 3.3 10.1-.1 9.2-5.3-.2-4 3.1-7.4 7.1-7.3h5c3.9 0 7.1 3.2 7.1 7.1-1.1 5.5 5.3 9.1 9.4 5.5 3.3-2 7.9-.8 9.7 2.6l2.5 4.4c2 3.3.8 7.9-2.6 9.7-5.3 1.9-5.3 9 0 10.8 3.4 1.9 4.6 6.5 2.6 9.7l-2.5 4.4c-1.9 3.4-6.5 4.6-9.7 2.6-4.2-3.6-10.4 0-9.4 5.5-.1 3.6-3.3 6.9-7.2 6.9zm-7.9-7c.1 1.5 1.3 2.7 2.8 2.7h5c1.5 0 2.8-1.2 2.8-2.7-1.3-8.6 9-14.6 15.9-9.2 1.3.8 3.1.2 3.8-1.1l2.5-4.4c.8-1.3.3-3.1-1-3.8-8.1-3.2-8.1-15.1 0-18.3 1.3-.8 1.8-2.6 1-3.8l-2.5-4.4c-.8-1.3-2.5-1.9-3.8-1.1-6.8 5.5-17.2-.5-15.9-9.2-.1-1.5-1.3-2.7-2.8-2.7h-5c-1.5 0-2.8 1.2-2.8 2.7 1.3 8.6-9 14.6-15.9 9.2-1.3-.8-3.1-.2-3.8 1.1l-2.5 4.4c-.8 1.3-.3 3.1 1 3.8 8.1 3.2 8.1 15.1 0 18.3-1.3.8-1.8 2.6-1 3.8l2.5 4.4c.8 1.3 2.5 1.9 3.8 1.1 6.9-5.5 17.2.5 15.9 9.2z" data-original="#8366dd" class=""></path><circle cx="385.1" cy="357.2" r="10" fill="#88aaff" data-original="#b188ff" class=""></circle></g></svg>