<svg width="364" height="93" viewBox="0 0 364 93" fill="none" xmlns="http://www.w3.org/2000/svg">
<g clip-path="url(#clip0_706_27)">
<path d="M98 33.9668V84.8262C98 89.3332 94.1361 93 89.3867 93H25.8398L10.0488 75.7441V36.6914L11.4844 28.5176V19.4355C11.4844 16.9276 13.6268 14.8945 16.2695 14.8945H21.0547C23.6974 14.8945 25.8398 16.9276 25.8398 19.4355V25.793H89.3867C94.1361 25.793 98 29.4597 98 33.9668ZM47.0859 18.1641H73.8828C77.5768 18.1641 80.582 15.3121 80.582 11.8066V6.35742C80.582 2.85194 77.5768 0 73.8828 0H47.0859C43.392 0 40.3867 2.85194 40.3867 6.35742V11.8066C40.3867 15.3121 43.392 18.1641 47.0859 18.1641Z" fill="url(#paint0_linear_706_27)"/>
<path d="M41.3438 39.416H37.5156C35.93 39.416 34.6445 38.1961 34.6445 36.6914C34.6445 35.1867 35.93 33.9668 37.5156 33.9668H41.3438C42.9294 33.9668 44.2148 35.1867 44.2148 36.6914C44.2148 38.1961 42.9294 39.416 41.3438 39.416ZM89.1953 36.6914C89.1953 35.1867 87.9098 33.9668 86.3242 33.9668H82.4961C80.9105 33.9668 79.625 35.1867 79.625 36.6914C79.625 38.1961 80.9105 39.416 82.4961 39.416H86.3242C87.9098 39.416 89.1953 38.1961 89.1953 36.6914ZM25.8398 25.793V93H8.61328C3.86392 93 0 89.3332 0 84.8262V33.9668C0 29.4597 3.86392 25.793 8.61328 25.793H25.8398ZM15.791 68.4785C15.791 66.9738 14.5055 65.7539 12.9199 65.7539C11.3343 65.7539 10.0488 66.9738 10.0488 68.4785V72.1113C10.0488 73.616 11.3343 74.8359 12.9199 74.8359C14.5055 74.8359 15.791 73.616 15.791 72.1113V68.4785ZM15.791 53.9473C15.791 52.4426 14.5055 51.2227 12.9199 51.2227C11.3343 51.2227 10.0488 52.4426 10.0488 53.9473V57.5801C10.0488 59.0848 11.3343 60.3047 12.9199 60.3047C14.5055 60.3047 15.791 59.0848 15.791 57.5801V53.9473ZM15.791 39.416C15.791 37.9113 14.5055 36.6914 12.9199 36.6914C11.3343 36.6914 10.0488 37.9113 10.0488 39.416V43.0488C10.0488 44.5535 11.3343 45.7734 12.9199 45.7734C14.5055 45.7734 15.791 44.5535 15.791 43.0488V39.416ZM86.3242 68.4785C86.3242 81.9997 74.7325 93 60.4844 93C46.2363 93 34.6445 81.9997 34.6445 68.4785C34.6445 54.9574 46.2363 43.957 60.4844 43.957C74.7325 43.957 86.3242 54.9574 86.3242 68.4785ZM74.8398 68.4785C74.8398 60.9668 68.4 54.8555 60.4844 54.8555C52.5688 54.8555 46.1289 60.9668 46.1289 68.4785C46.1289 75.9903 52.5688 82.1016 60.4844 82.1016C68.4 82.1016 74.8398 75.9903 74.8398 68.4785ZM49.957 18.1641V25.793H71.0117V18.1641H49.957Z" fill="url(#paint1_linear_706_27)"/>
</g>
<path d="M122.984 66V32.4H137.528C140.536 32.4 143.128 32.896 145.304 33.888C147.48 34.848 149.16 36.24 150.344 38.064C151.528 39.888 152.12 42.064 152.12 44.592C152.12 47.088 151.528 49.248 150.344 51.072C149.16 52.896 147.48 54.304 145.304 55.296C143.128 56.256 140.536 56.736 137.528 56.736H127.304L130.76 53.232V66H122.984ZM130.76 54.096L127.304 50.4H137.096C139.496 50.4 141.288 49.888 142.472 48.864C143.656 47.84 144.248 46.416 144.248 44.592C144.248 42.736 143.656 41.296 142.472 40.272C141.288 39.248 139.496 38.736 137.096 38.736H127.304L130.76 35.04V54.096ZM169.18 66.576C166.492 66.576 163.916 66.224 161.452 65.52C158.988 64.784 157.004 63.84 155.5 62.688L158.14 56.832C159.58 57.856 161.276 58.704 163.228 59.376C165.212 60.016 167.212 60.336 169.228 60.336C170.764 60.336 171.996 60.192 172.924 59.904C173.884 59.584 174.588 59.152 175.036 58.608C175.484 58.064 175.708 57.44 175.708 56.736C175.708 55.84 175.356 55.136 174.652 54.624C173.948 54.08 173.02 53.648 171.868 53.328C170.716 52.976 169.436 52.656 168.028 52.368C166.652 52.048 165.26 51.664 163.852 51.216C162.476 50.768 161.212 50.192 160.06 49.488C158.908 48.784 157.964 47.856 157.228 46.704C156.524 45.552 156.172 44.08 156.172 42.288C156.172 40.368 156.684 38.624 157.708 37.056C158.764 35.456 160.332 34.192 162.412 33.264C164.524 32.304 167.164 31.824 170.332 31.824C172.444 31.824 174.524 32.08 176.572 32.592C178.62 33.072 180.428 33.808 181.996 34.8L179.596 40.704C178.028 39.808 176.46 39.152 174.892 38.736C173.324 38.288 171.788 38.064 170.284 38.064C168.78 38.064 167.548 38.24 166.588 38.592C165.628 38.944 164.94 39.408 164.524 39.984C164.108 40.528 163.9 41.168 163.9 41.904C163.9 42.768 164.252 43.472 164.956 44.016C165.66 44.528 166.588 44.944 167.74 45.264C168.892 45.584 170.156 45.904 171.532 46.224C172.94 46.544 174.332 46.912 175.708 47.328C177.116 47.744 178.396 48.304 179.548 49.008C180.7 49.712 181.628 50.64 182.332 51.792C183.068 52.944 183.436 54.4 183.436 56.16C183.436 58.048 182.908 59.776 181.852 61.344C180.796 62.912 179.212 64.176 177.1 65.136C175.02 66.096 172.38 66.576 169.18 66.576ZM188.75 66V32.4H196.526V66H188.75ZM219.668 39.792C221.716 39.792 223.54 40.208 225.14 41.04C226.772 41.84 228.052 43.088 228.98 44.784C229.908 46.448 230.372 48.592 230.372 51.216V66H222.884V52.368C222.884 50.288 222.42 48.752 221.492 47.76C220.596 46.768 219.316 46.272 217.652 46.272C216.468 46.272 215.396 46.528 214.436 47.04C213.508 47.52 212.772 48.272 212.228 49.296C211.716 50.32 211.46 51.632 211.46 53.232V66H203.972V40.176H211.124V47.328L209.78 45.168C210.708 43.44 212.036 42.112 213.764 41.184C215.492 40.256 217.46 39.792 219.668 39.792ZM245.847 66.384C243.639 66.384 241.511 66.128 239.463 65.616C237.447 65.072 235.847 64.4 234.663 63.6L237.159 58.224C238.343 58.96 239.735 59.568 241.335 60.048C242.967 60.496 244.567 60.72 246.135 60.72C247.863 60.72 249.079 60.512 249.783 60.096C250.519 59.68 250.887 59.104 250.887 58.368C250.887 57.76 250.599 57.312 250.023 57.024C249.479 56.704 248.743 56.464 247.815 56.304C246.887 56.144 245.863 55.984 244.743 55.824C243.655 55.664 242.551 55.456 241.431 55.2C240.311 54.912 239.287 54.496 238.359 53.952C237.431 53.408 236.679 52.672 236.103 51.744C235.559 50.816 235.287 49.616 235.287 48.144C235.287 46.512 235.751 45.072 236.679 43.824C237.639 42.576 239.015 41.6 240.807 40.896C242.599 40.16 244.743 39.792 247.239 39.792C248.999 39.792 250.791 39.984 252.615 40.368C254.439 40.752 255.959 41.312 257.175 42.048L254.679 47.376C253.431 46.64 252.167 46.144 250.887 45.888C249.639 45.6 248.423 45.456 247.239 45.456C245.575 45.456 244.359 45.68 243.591 46.128C242.823 46.576 242.439 47.152 242.439 47.856C242.439 48.496 242.711 48.976 243.255 49.296C243.831 49.616 244.583 49.872 245.511 50.064C246.439 50.256 247.447 50.432 248.535 50.592C249.655 50.72 250.775 50.928 251.895 51.216C253.015 51.504 254.023 51.92 254.919 52.464C255.847 52.976 256.599 53.696 257.175 54.624C257.751 55.52 258.039 56.704 258.039 58.176C258.039 59.776 257.559 61.2 256.599 62.448C255.639 63.664 254.247 64.624 252.423 65.328C250.631 66.032 248.439 66.384 245.847 66.384ZM273.219 66.384C270.179 66.384 267.811 65.616 266.115 64.08C264.419 62.512 263.571 60.192 263.571 57.12V34.464H271.059V57.024C271.059 58.112 271.347 58.96 271.923 59.568C272.499 60.144 273.283 60.432 274.275 60.432C275.459 60.432 276.467 60.112 277.299 59.472L279.315 64.752C278.547 65.296 277.619 65.712 276.531 66C275.475 66.256 274.371 66.384 273.219 66.384ZM259.587 46.512V40.752H277.491V46.512H259.587ZM299.359 66V60.96L298.879 59.856V50.832C298.879 49.232 298.383 47.984 297.391 47.088C296.431 46.192 294.943 45.744 292.927 45.744C291.551 45.744 290.191 45.968 288.847 46.416C287.535 46.832 286.415 47.408 285.487 48.144L282.799 42.912C284.207 41.92 285.903 41.152 287.887 40.608C289.871 40.064 291.887 39.792 293.935 39.792C297.871 39.792 300.927 40.72 303.103 42.576C305.279 44.432 306.367 47.328 306.367 51.264V66H299.359ZM291.487 66.384C289.471 66.384 287.743 66.048 286.303 65.376C284.863 64.672 283.759 63.728 282.991 62.544C282.223 61.36 281.839 60.032 281.839 58.56C281.839 57.024 282.207 55.68 282.943 54.528C283.711 53.376 284.911 52.48 286.543 51.84C288.175 51.168 290.303 50.832 292.927 50.832H299.791V55.2H293.743C291.983 55.2 290.767 55.488 290.095 56.064C289.455 56.64 289.135 57.36 289.135 58.224C289.135 59.184 289.503 59.952 290.239 60.528C291.007 61.072 292.047 61.344 293.359 61.344C294.607 61.344 295.727 61.056 296.719 60.48C297.711 59.872 298.431 58.992 298.879 57.84L300.031 61.296C299.487 62.96 298.495 64.224 297.055 65.088C295.615 65.952 293.759 66.384 291.487 66.384Z" fill="white"/>
<defs>
<linearGradient id="paint0_linear_706_27" x1="54.0244" y1="93" x2="54.0244" y2="0" gradientUnits="userSpaceOnUse">
<stop stop-color="#5357FF"/>
<stop offset="1" stop-color="#00C0FF"/>
</linearGradient>
<linearGradient id="paint1_linear_706_27" x1="44.5977" y1="93" x2="44.5977" y2="18.1641" gradientUnits="userSpaceOnUse">
<stop stop-color="#96DCFF"/>
<stop offset="0.503" stop-color="#E5F5FF"/>
<stop offset="1" stop-color="#E5F5FF"/>
</linearGradient>
<clipPath id="clip0_706_27">
<rect width="98" height="93" fill="white"/>
</clipPath>
</defs>
</svg>
